              ***********************************************

                PublicHash - Largest Bittorrent Community
      
                          http://publichash.com/
    
              ***********************************************
Source: Uncut.2011.DL.1080p.BluRay.x264-ENCOUNTERS
 
http://www.imdb.com/title/tt1715223/ 
http://www.bluray-disc.de/blu-ray-filme/the-watermen-uncut-blu-ray-disc

A clan of watermen capture a crew of sport fishermen who must then fight for their lives

General
Complete name: The Watermen 2011 UNCUT BRRip x264 AAC-OFFLiNE.mp4
Format: MPEG-4
Format profile: Base Media
Codec ID: isom
File size: 1.42 GiB
Duration: 1h 34mn
Overall bit rate mode: Variable
Overall bit rate: 2 168 Kbps
Encoded date: UTC 2013-06-01 18:38:56
Tagged date: UTC 2013-06-01 18:38:56

Video
ID: 1
Format: AVC
Format/Info: Advanced Video Codec
Format profile: High@L4.1
Format settings, CABAC: Yes
Format settings, ReFrames: 3 frames
Codec ID: avc1
Codec ID/Info: Advanced Video Coding
Duration: 1h 34mn
Bit rate mode: Variable
Bit rate: 1 820 Kbps
Maximum bit rate: 40.0 Mbps
Width: 720 pixels
Height: 352 pixels
Display aspect ratio: 2.045
Frame rate mode: Constant
Frame rate: 23.976 fps
Color space: YUV
Chroma subsampling: 4:2:0
Bit depth: 8 bits
Scan type: Progressive
Bits/(Pixel*Frame): 0.300
Stream size: 1.20 GiB (84%)
Writing library: x264 core 133 r2334 a3ac64b

Audio
ID: 2
Format: AAC
Format/Info: Advanced Audio Codec
Format profile: LC
Codec ID: 40
Duration: 1h 34mn
Bit rate mode: Variable
Bit rate: 345 Kbps
Maximum bit rate: 389 Kbps
Channel(s): 6 channels
Channel positions: Front: L C R, Side: L R, LFE
Sampling rate: 48.0 KHz
Compression mode: Lossy
Stream size: 232 MiB (16%)
Language: English
Encoded date: UTC 2013-06-01 14:59:39
Tagged date: UTC 2013-06-01 18:40:02 

Gallery: 
http://imgsure.com/?g=123914